<svg xmlns="http://www.w3.org/2000/svg" version="1.1" xmlns:xlink="http://www.w3.org/1999/xlink" xmlns:svgjs="http://svgjs.com/svgjs" width="1000" height="1000"><rect width="1000" height="1000" rx="500" ry="500" fill="#ffa8df"></rect><g transform="matrix(1.8139383019118909,0,0,1.8139383019118909,49.99997943295551,50.00038838899371)"><svg xmlns="http://www.w3.org/2000/svg" version="1.1" xmlns:xlink="http://www.w3.org/1999/xlink" xmlns:svgjs="http://svgjs.com/svgjs" width="496.158" height="496.158"><svg version="1.1" id="Layer_1" xmlns="http://www.w3.org/2000/svg" xmlns:xlink="http://www.w3.org/1999/xlink" x="0px" y="0px" viewBox="0 0 496.158 496.158" style="enable-background:new 0 0 496.158 496.158;" xml:space="preserve">
<path style="fill:#4ABC96;" d="M248.082,0.002C111.07,0.002,0,111.062,0,248.084c0,137.001,111.07,248.07,248.082,248.07
	c137.006,0,248.076-111.069,248.076-248.07C496.158,111.061,385.088,0.002,248.082,0.002z"></path>
<path style="fill:#EAE19B;" d="M219.475,42.258c0,0-42.351,35.483-46.929,124.189c0,0-26.899,85.844-33.194,102.441
	c0,0-14.307,46.928-14.879,58.375c0,0-1.717,13.163,5.151,24.609c0,0,33.765,40.061,54.94,49.79c0,0,20.031,34.91,21.176,38.916
	l36.055-402.327C241.794,38.252,231.493,30.811,219.475,42.258z"></path>
<polygon style="fill:#EAD988;" points="303.03,149.707 257.533,193.489 259.249,245.425 328.355,254.438 "></polygon>
<path style="fill:#DFA17C;" d="M295.877,242.563c0,0-18.027,0.286-23.751-8.299c0,0-9.443-9.442-4.292-42.064
	c0,0-14.594,9.443-41.206-5.15c0,0-0.859,36.914-6.868,46.356c0,0-20.759,13.501-41.921,17.884
	c-0.428,0.088-2.611,0.626-3.577,1.001c-0.612,0.238,17.169,21.891,4.292,48.932c0,0,0.859,6.867,0.859,18.885l124.475-38.63
	L295.877,242.563z"></path>
<path style="fill:#F2C7B1;" d="M201.161,247.141c-5.437,3.863,4.006,4.007,4.006,4.007c19.172-3.721,20.388-22.463,20.388-22.463
	C219.761,242.849,203.381,245.564,201.161,247.141z"></path>
<path style="fill:#CE8967;" d="M226.628,187.05c0,0,24.036,34.338,40.077,14.227c0,0,0.615-5.825,1.128-9.077
	C267.834,192.201,253.24,201.644,226.628,187.05z"></path>
<path style="fill:#DFA17C;" d="M186.711,276.4c-0.619-11.714-10.917-23.771-13.312-22.926c-3.664,1.293-18.595,10.705-23.385,23.666
	c0,0-21.692,68.18-25.073,83.956c0,0-8.17,24.51-9.861,37.47c0,0-1.613,35.898-1.939,57.699c7.65,4.969,15.593,9.524,23.794,13.641
	c0.035-1.013,0.075-1.716,0.121-2.035c0,0,5.634-52.401,4.789-66.207c0,0,23.103-81.139,27.046-91.844c0,0,7.007-8.278,8.698-8.56
	C177.589,301.26,187.379,289.076,186.711,276.4z"></path>
<g>
	<path style="fill:#F2C7B1;" d="M167.824,258.516c-16.418,11.911-17.312,25.253-17.312,25.253s9.371-12.591,13.878-16.669
		c4.507-4.077,11.16-7.082,11.16-7.082C174.477,258.087,171.942,255.528,167.824,258.516z"></path>
	<path style="fill:#F2C7B1;" d="M116.46,422.839c0.974,38.335,15.094-70.751,15.094-70.751S115.458,383.421,116.46,422.839z"></path>
</g>
<path style="fill:#EFBBA0;" d="M174.263,252.292c0,0-0.506,0.752-0.863,1.181c2.579,3.334,15.816,21.832,3.726,47.965
	c0,0,1.188-0.174,1.43-0.214C191.432,274.184,174.263,252.292,174.263,252.292z"></path>
<path style="fill:#EAD988;" d="M362.693,263.023c0,0-16.311-62.667-20.603-78.978c0,0-11.16-66.101-13.306-71.251
	c0,0-6.867-45.498-27.041-63.525c-9.516-8.503-40.347-24.895-63.955-11.589c0,0-3.434,23.465,0,31.477
	c0,0,55.799,15.738,60.091,100.725c0,0,9.014,66.101,17.169,85.845c0,0,12.734,69.392,13.164,76.688c0,0-6.295,58.231-6.295,59.519
	c0,0,10.021,1.595,17.741,4.006c4.578,1.43,15.991,1.78,18.599,1.145c1.217-0.296,2.889-11.178,4.007-11.446
	c4.854-1.172,6.176-4.006,6.582-4.006C368.845,381.633,364.41,274.184,362.693,263.023z"></path>
<path style="fill:#D39475;" d="M344.236,425.986c0,0-5.15-76.689-3.72-88.993c0,0-0.859-67.532-10.016-78.978
	c-9.156-11.445-24.895-15.166-24.895-15.166l9.443,117.036c0,0-0.572,50.648,0,56.943c0.573,6.295,4.864,34.339,6.295,40.062
	c0.732,2.927,4.01,14.688,7.229,25.903c7.491-2.568,14.821-5.479,21.969-8.726C348.441,456.652,345.47,432.685,344.236,425.986z"></path>
<path style="fill:#DFA17C;" d="M237.788,69.156c0,0-31.476,10.874-30.332,62.953c0,0-4.007,38.916,19.172,54.941
	c0,0,28.278,19.467,53.224-0.858c7.727-6.295,16.883-17.455,18.027-24.895C297.879,161.297,304.318,96.054,237.788,69.156z"></path>
<path style="fill:#5B3224;" d="M296.894,116.257c-1.556-2.114-10.091-4.234-10.091-4.234c-9.548-2.274-20.844,5.652-20.844,5.652
	c-0.425,1.989,1.686,2.663,3.13,2.154c1.446-0.508,12.023-3.484,15.896-3.935c3.255-0.379,11.525,1.806,11.525,1.806
	C297.648,117.941,297.37,116.908,296.894,116.257z"></path>
<g style="opacity:0.6;">
	<path style="fill:#F1A6B3;" d="M278.372,120.96c-7.61,1.825-14.115,6.866-13.065,11.247c0,0,9.173,4.684,16.782,2.859
		c7.611-1.824,10.797-9.69,11.236-11.66C294.07,120.07,285.983,119.136,278.372,120.96z"></path>
</g>
<path style="fill:#4E4F4F;" d="M265.307,132.207c15.729,10.645,24.17-1.747,24.17-1.747
	C271.465,118.47,265.307,132.207,265.307,132.207z"></path>
<path style="fill:#EFF4F9;" d="M265.704,132.439c14.539,9.841,22.054-1.232,22.054-1.232
	C271.107,120.124,265.704,132.439,265.704,132.439z"></path>
<path style="fill:#6997B7;" d="M280.696,127.571c-3.312-1.148-5.979-1.187-8.092-0.67c-0.886,0.777-1.549,1.82-1.814,3.06
	c-0.535,2.507,0.693,4.958,2.831,6.13c1.676,0.389,3.21,0.491,4.591,0.38c1.796-0.636,3.234-2.145,3.661-4.143
	C282.246,130.577,281.748,128.857,280.696,127.571z"></path>
<circle style="fill:#4E4F4F;" cx="276.329" cy="131.148" r="2.906"></circle>
<circle style="fill:#EFF4F9;" cx="277.369" cy="130.478" r="1.453"></circle>
<path style="fill:#F2C7B1;" d="M215.468,99.059c0,0,17.598-7.297,21.461-26.612C236.93,72.447,219.331,85.753,215.468,99.059z"></path>
<path style="fill:#5B3224;" d="M225.973,105.441c0,0-8.791,0.291-10.752,2.034c-0.602,0.536-1.09,1.49,0.073,1.49
	c0,0,8.544-0.409,11.649,0.641c3.692,1.25,13.415,6.37,14.723,7.168c1.307,0.799,3.512,0.581,3.512-1.453
	C245.177,115.322,235.786,105.211,225.973,105.441z"></path>
<g style="opacity:0.6;">
	<path style="fill:#F1A6B3;" d="M232.351,115.942c-7.062-3.374-15.167-4.149-15.135-0.729c0.019,2.017,1.491,10.375,8.553,13.749
		c7.062,3.374,17.01,0.708,17.01,0.708C244.721,125.604,239.412,119.316,232.351,115.942z"></path>
</g>
<path style="fill:#4E4F4F;" d="M219.507,122.914c0,0,5.667,13.881,23.272,6.756C242.779,129.67,239.626,114.95,219.507,122.914z"></path>
<path style="fill:#EFF4F9;" d="M221.033,124.003c0,0,5.037,12.398,21.31,5.811C242.343,129.814,239.631,116.641,221.033,124.003z"></path>
<path style="fill:#6997B7;" d="M236.752,122.956c-1.958-0.946-4.575-1.465-8.054-1.035c-1.297,1.039-2.144,2.616-2.144,4.406
	c0,2.044,1.092,3.819,2.715,4.816c1.328,0.397,2.85,0.618,4.569,0.587c2.336-0.699,4.049-2.84,4.049-5.403
	C237.887,125.059,237.455,123.901,236.752,122.956z"></path>
<circle style="fill:#4E4F4F;" cx="232.219" cy="126.328" r="2.906"></circle>
<circle style="fill:#EFF4F9;" cx="231.349" cy="125.458" r="1.453"></circle>
<polygon style="fill:#FFFFFF;" points="251.781,166.668 234.431,164.626 237.774,169.237 251.301,173.529 266.259,170.847 
	269.108,167.382 "></polygon>
<path style="fill:#E24D87;" d="M266.01,167.52c-2.2,0.161-6.021,4.692-14.415,3.792c-8.394-0.9-12.876-5.508-13.592-5.758
	c-2.373-0.828-4.053-0.966-4.053-0.966s5.318,12.102,16.966,12.981s18.333-10.316,18.333-10.316S268.121,167.366,266.01,167.52z"></path>
<path style="fill:#E85B8A;" d="M260.623,163.718c-4.279-0.322-8.643,0.397-8.643,0.397s-4.196-1.368-8.475-1.689
	c-4.278-0.323-9.556,2.162-9.556,2.162s11.061,3.012,17.716,3.514c6.656,0.503,17.583-0.849,17.583-0.849
	S264.902,164.042,260.623,163.718z"></path>
<path style="fill:#F781AE;" d="M236.558,164.661l10.925-0.125C240.743,160.932,236.558,164.661,236.558,164.661z"></path>
<g>
	<path style="fill:#CC8866;" d="M249.594,151.433c-1.18-0.146-2.237,0.328-2.363,1.063c-0.126,0.733,4.147,1.266,4.272,0.532
		C251.629,152.294,250.775,151.581,249.594,151.433z"></path>
	<path style="fill:#CC8866;" d="M256.362,151.812c-1.187,0.016-2.135,0.628-2.122,1.37s4.305,0.686,4.292-0.056
		C258.519,152.384,257.548,151.797,256.362,151.812z"></path>
</g>
<g>
	<path style="fill:#CE8967;" d="M258.963,144.128c-0.572-1.574-1.216-16.096-1.216-17.384c0,0-0.5,16.955-0.071,18.099
		s4.078,4.364,4.078,4.364C261.896,147.991,259.536,145.701,258.963,144.128z"></path>
	<path style="fill:#CE8967;" d="M244.012,149.815c1.395-3.648,3.434-5.687,3.434-5.687
		C244.226,144.986,244.012,149.815,244.012,149.815z"></path>
</g>
<path style="fill:#F47D94;" d="M304.747,412.823c0,0,14.593-60.091,15.452-66.101c0,0,14.594-30.904,3.434-57.516
	c0,0-13.735-43.781-18.028-46.356l-22.32-1.717c0,0,0,22.319-25.753,34.338c0,0-45.498,24.895-55.799,27.47
	c0,0-20.603,12.877-22.32,17.169c0,0-0.859,18.028,5.15,36.055c0,0,17.169,40.347,18.886,48.932c0,0,7.727,15.452,5.151,19.744
	c0,0-17.349,36.674-27.639,62.118c21.349,5.986,43.859,9.196,67.121,9.196c26.587,0,52.19-4.2,76.202-11.943
	c-2.865-7.918-5.848-14.689-8.376-19.023C315.907,465.188,304.747,426.559,304.747,412.823z"></path>
<path style="fill:#E2607F;" d="M283.286,241.133c0,0,0,22.319-25.753,34.338c0,0-45.498,24.895-55.799,27.47
	c0,0-20.603,12.877-22.32,17.169c0,0-0.164,3.437,0.152,8.808c6.403-6.334,22.493-16.842,22.493-16.842
	c11.643-3.159,62.76-32.469,62.76-32.469c24.253-11.911,27.855-31.599,28.386-37.711L283.286,241.133z"></path>
<path style="fill:#F2ECB3;" d="M365.764,312.954c-1.15-23.566-2.351-45.243-3.071-49.931c0,0-16.311-62.667-20.603-78.978
	c0,0-11.16-66.101-13.306-71.251c0,0-6.867-45.498-27.041-63.525c-9.516-8.503-40.347-24.895-63.955-11.589
	c0,0-3.434,23.465,0,31.477c0,0,55.799,15.738,60.091,100.725c0,0,11.69,85.442,15.882,97.005
	c12.447,34.338,14.594,61.808,15.022,69.105c0,0,10.731,3.434,20.76-1.328c2.011-0.955,2.869-6.05,4.994-6.541
	c3.719-0.858,1.807-5.043,4.292-6.009C363.98,320.111,366.107,319.97,365.764,312.954z"></path>
</svg></svg></g></svg>